<?xml version="1.0" encoding="iso-8859-1"?>
<!-- Generator: Adobe Illustrator 19.0.0, SVG Export Plug-In . SVG Version: 6.00 Build 0)  -->
<svg version="1.1" id="Capa_1" xmlns="http://www.w3.org/2000/svg" xmlns:xlink="http://www.w3.org/1999/xlink" x="0px" y="0px"
	 viewBox="0 0 511.982 511.982" style="enable-background:new 0 0 511.982 511.982;" xml:space="preserve">
<path d="M400,495.983H16c-8.837,0-16-7.163-16-16v-384c0-8.837,7.163-16,16-16h160c8.837,0,16,7.163,16,16s-7.163,16-16,16H32v352
	h352v-144c0-8.837,7.163-16,16-16s16,7.163,16,16v160C416,488.819,408.837,495.983,400,495.983z"/>
<path style="fill:#2196F3;" d="M342.4,95.983H368v-64l128,112l-128,112v-64h-37.6c-66.2,0-127.73,34.103-162.816,90.24L144,319.983
	l8.448-59.168C165.961,166.277,246.901,96.04,342.4,95.983z"/>
<path d="M144,335.983c-1.866-0.004-3.716-0.329-5.472-0.96c-7.105-2.587-11.429-9.794-10.368-17.28l8.448-59.168
	C151.647,156.369,239.095,80.479,342.4,79.983h9.6v-48c0.009-8.837,7.18-15.993,16.016-15.984c3.866,0.004,7.6,1.408,10.512,3.952
	l128,112c6.645,5.825,7.31,15.934,1.485,22.579c-0.462,0.527-0.958,1.023-1.485,1.485l-128,112
	c-6.654,5.814-16.762,5.134-22.576-1.52c-2.544-2.911-3.948-6.645-3.952-10.512v-48h-21.568
	c-60.739-0.184-117.235,31.122-149.28,82.72l-23.584,37.76C154.644,333.141,149.517,335.983,144,335.983z M342.4,111.983
	c-82.754,0.433-154.162,58.152-171.936,138.976c39.422-47.682,98.132-75.194,160-74.976H368c8.837,0,16,7.163,16,16v28.8
	l87.712-76.8L384,67.183v28.8c0,8.837-7.163,16-16,16H342.4z"/>
<g>
</g>
<g>
</g>
<g>
</g>
<g>
</g>
<g>
</g>
<g>
</g>
<g>
</g>
<g>
</g>
<g>
</g>
<g>
</g>
<g>
</g>
<g>
</g>
<g>
</g>
<g>
</g>
<g>
</g>
</svg>
